:SAMPLES-PER-SECOND 30
:FULLY-SPECIFIED
:DEGREES
49
root  67.7259 38.5932 -3.16314 -134.733 -83.3235 133.965
RightUpLeg  9.63607 -6.27051 -11.6895
RightLeg  31.8219 0.480755 0.0723626
RightFoot  -7.86576 -0.459302 14.3354
RightToes  -1.74624e-010 0 -3.6325e-017
Spine  3.51418 1.97502 1.96496
Spine1  9.78235 4.54458 -8.9814
HEad  -16.5506 4.58231 -3.55152
LeftShoulder1  9.48613 -13.2654 -49.3887
LeftArm  -7.34546 22.8504 -21.7242
LeftForeArm  25.0247 -3.4496 -5.34348
LeftHand  -0.244104 0.0205437 5.32207
RightShoulder  7.09868 11.0076 42.6069
RightArm  7.61789 4.43243 33.7979
RightForeArm  -3.83189 23.7833 5.36702
RightHand  -0.956001 1.51378 -16.1683
LeftUpLeg  -20.7709 12.5253 -10.1999
LeftLeg  21.3139 7.98056 3.7659
LeftFoot  -2.21613 -0.463101 5.96866
LeftToes  -6.82154e-011 1.37952e-011 -1.79748e-011
50
root  66.6383 38.835 -3.04439 -140.832 -82.7722 139.75
RightUpLeg  3.19959 -3.07375 -10.9437
RightLeg  42.9078 -0.783009 -1.05848
RightFoot  2.25462 -1.35223 11.549
RightToes  -1.74624e-010 0 -3.6325e-017
Spine  3.73782 1.99203 1.15961
Spine1  9.86728 4.30974 -8.20543
HEad  -16.2592 4.75653 -4.90618
LeftShoulder1  9.43722 -13.2389 -49.2104
LeftArm  -7.97399 21.6816 -22.6805
LeftForeArm  25.7749 -3.78355 -5.22305
LeftHand  -0.244104 0.0205437 5.32207
RightShoulder  7.29288 11.3017 42.9206
RightArm  9.45825 2.31054 33.9252
RightForeArm  -4.66441 20.143 5.66056
RightHand  -0.948782 1.49301 -16.0892
LeftUpLeg  -17.9965 13.9759 -9.81473
LeftLeg  20.3752 7.65587 3.39561
LeftFoot  -3.83683 -0.346381 5.63418
LeftToes  -6.82154e-011 1.37952e-011 -1.79748e-011
51
root  65.6062 39.0689 -2.96004 -144.784 -82.3967 143.345
RightUpLeg  -3.06676 -1.03468 -10.3155
RightLeg  51.7492 -1.23329 -2.04583
RightFoot  8.13485 -1.313 7.88076
RightToes  -1.74624e-010 0 -3.6325e-017
Spine  4.22159 1.6724 -0.440814
Spine1  9.91943 3.43579 -6.57655
HEad  -15.9051 5.74209 -6.25958
LeftShoulder1  9.32443 -13.0843 -49.0751
LeftArm  -8.3208 20.4633 -23.5756
LeftForeArm  26.5912 -5.74479 -5.36034
LeftHand  -0.244104 0.0205437 5.32207
RightShoulder  7.50082 11.5423 43.4703
RightArm  9.50316 0.601987 33.5367
RightForeArm  -0.528431 16.6374 6.93057
RightHand  -0.868996 1.24028 -15.3037
LeftUpLeg  -15.0917 14.6127 -9.03701
LeftLeg  19.1936 7.88883 2.60126
LeftFoot  -4.92817 -0.269829 5.3439
LeftToes  -6.82154e-011 1.37952e-011 -1.79748e-011
52
root  64.5647 39.3611 -2.85699 -148.445 -83.0113 146.546
RightUpLeg  -8.05089 -0.746347 -9.37269
RightLeg  56.6643 -1.59598 -3.0457
RightFoot  8.58937 -0.976876 5.87158
RightToes  -1.74624e-010 0 -3.6325e-017
Spine  4.99542 0.963726 -1.07768
Spine1  9.73133 2.23364 -5.02511
HEad  -15.6243 6.69759 -6.97951
LeftShoulder1  9.32737 -13.0391 -49.2242
LeftArm  -8.00328 18.6045 -23.8031
LeftForeArm  27.1809 -7.93265 -5.72695
LeftHand  -0.244104 0.0205437 5.32207
RightShoulder  7.56326 11.4845 44.0304
RightArm  8.71814 -1.68627 33.0149
RightForeArm  4.93022 14.3514 7.71596
RightHand  -0.802945 0.89277 -14.919
LeftUpLeg  -11.5712 13.064 -7.35598
LeftLeg  17.3732 9.30075 1.42822
LeftFoot  -5.90962 -0.198721 4.93626
LeftToes  -6.82154e-011 1.37952e-011 -1.79748e-011
53
root  63.5303 39.6363 -2.72854 -154.423 -83.9999 152.184
RightUpLeg  -12.2447 -1.26947 -8.15826
RightLeg  57.7163 -2.02357 -3.90572
RightFoot  6.54456 -0.829774 5.56201
RightToes  -1.74624e-010 0 -3.6325e-017
Spine  5.65185 0.27622 -0.692512
Spine1  9.64421 1.23287 -3.99426
HEad  -15.639 6.8819 -7.22732
LeftShoulder1  9.38953 -13.0676 -49.4672
LeftArm  -7.31346 15.8287 -23.7377
LeftForeArm  27.3714 -9.72159 -5.97786
LeftHand  -0.244104 0.0205437 5.32207
RightShoulder  7.44294 11.1956 44.1883
RightArm  7.41278 -4.78966 32.6737
RightForeArm  8.34179 13.1434 7.94213
RightHand  -0.809018 0.788786 -15.2648
LeftUpLeg  -8.02083 10.4346 -5.39403
LeftLeg  15.136 11.3712 0.0783717
LeftFoot  -6.84108 -0.128375 4.30871
LeftToes  -6.82154e-011 1.37952e-011 -1.79748e-011
54
root  62.5076 39.8067 -2.61291 -161.25 -84.5961 158.885
RightUpLeg  -16.0828 -1.78517 -7.01391
RightLeg  55.6922 -2.63772 -4.57097
RightFoot  4.71888 -0.752314 5.55293
RightToes  -1.74624e-010 0 -3.6325e-017
Spine  6.08302 -0.178489 -0.549509
Spine1  9.63325 0.446796 -2.99853
HEad  -15.8232 6.63955 -7.30761
LeftShoulder1  9.40545 -13.0504 -49.6022
LeftArm  -6.72198 12.598 -23.8668
LeftForeArm  26.9201 -11.3716 -5.92824
LeftHand  -0.244104 0.0205437 5.32207
RightShoulder  7.28891 10.9618 43.9633
RightArm  5.55144 -8.25326 32.3559
RightForeArm  9.63336 12.1934 8.05289
RightHand  -0.88074 1.22274 -15.5525
LeftUpLeg  -5.06326 7.92323 -3.90823
LeftLeg  13.2523 13.5213 -1.18497
LeftFoot  -7.80948 -0.0637792 3.59342
LeftToes  -6.82154e-011 1.37952e-011 -1.79748e-011
55
root  61.4747 39.8962 -2.52197 -166.64 -85.1053 164.146
RightUpLeg  -19.045 -2.64165 -5.91914
RightLeg  50.8259 -3.55475 -5.01986
RightFoot  3.52019 -0.632924 5.03292
RightToes  -1.74624e-010 0 -3.6325e-017
Spine  6.68019 -0.625588 -0.90287
Spine1  9.37152 -0.423544 -1.70254
HEad  -15.7841 6.67248 -7.14394
LeftShoulder1  9.37311 -12.9947 -49.598
LeftArm  -6.24731 9.33628 -24.1715
LeftForeArm  25.8379 -13.0244 -5.69444
LeftHand  -0.244104 0.0205437 5.32207
RightShoulder  7.18643 10.8519 43.6618
RightArm  3.30697 -11.5925 31.8631
RightForeArm  10.6052 11.1114 8.10764
RightHand  -0.960668 1.94055 -15.3345
LeftUpLeg  -2.4971 6.38816 -3.03476
LeftLeg  11.9094 14.6412 -2.0761
LeftFoot  -8.88505 -0.0156972 3.24658
LeftToes  -6.82154e-011 1.37952e-011 -1.79748e-011
56
root  60.4198 39.9049 -2.45227 -170.94 -85.8483 168.156
RightUpLeg  -20.5682 -4.21702 -4.82702
RightLeg  43.0338 -4.36165 -4.6506
RightFoot  2.4769 -0.565279 4.80553
RightToes  -1.74624e-010 0 -3.6325e-017
Spine  7.54306 -1.16336 -1.33772
Spine1  8.98684 -1.36133 -0.510639
HEad  -15.5168 7.0261 -6.65683
LeftShoulder1  9.34464 -12.9721 -49.5156
LeftArm  -5.65053 5.95607 -24.3994
LeftForeArm  24.6269 -14.4883 -5.43979
LeftHand  -0.244104 0.0205437 5.32207
RightShoulder  7.04829 10.6382 43.4591
RightArm  0.86875 -14.3899 31.2775
RightForeArm  12.2089 9.80966 8.00781
RightHand  -0.991099 2.32774 -15.0444
LeftUpLeg  -0.136642 5.78581 -2.481
LeftLeg  11.3515 14.5284 -2.51847
LeftFoot  -10.3243 0.0328814 3.3161
LeftToes  -6.82154e-011 1.37952e-011 -1.79748e-011
57
root  59.3036 39.8141 -2.41091 -172.752 -86.4826 169.704
RightUpLeg  -20.8982 -6.42925 -3.79784
RightLeg  32.8326 -4.25041 -3.23653
RightFoot  1.66834 -0.591969 5.289
RightToes  -1.74624e-010 0 -3.6325e-017
Spine  8.11149 -1.59558 -1.94837
Spine1  8.85944 -2.11751 0.434087
HEad  -15.3934 7.315 -6.12211
LeftShoulder1  9.34851 -13.0043 -49.4395
LeftArm  -4.92046 2.46774 -24.4412
LeftForeArm  23.7357 -15.7927 -5.18319
LeftHand  -0.244104 0.0205437 5.32207
RightShoulder  6.82987 10.2383 43.3308
RightArm  -1.46948 -16.389 30.7258
RightForeArm  14.0217 8.0767 7.73119
RightHand  -0.973309 2.23597 -14.9525
LeftUpLeg  2.00891 5.65004 -2.15176
LeftLeg  11.4428 13.9377 -2.76301
LeftFoot  -12.1811 0.0959047 3.18814
LeftToes  -6.82154e-011 1.37952e-011 -1.79748e-011
58
root  58.108 39.6803 -2.39506 -168.966 -86.8087 165.93
RightUpLeg  -20.6873 -9.63448 -2.64817
RightLeg  21.3607 -2.60062 -1.34441
RightFoot  1.31098 -0.659994 6.02563
RightToes  -1.74624e-010 0 -3.6325e-017
Spine  8.07063 -1.85327 -2.94711
Spine1  8.95479 -2.71014 1.57166
HEad  -15.4576 7.40355 -5.79725
LeftShoulder1  9.37406 -13.0718 -49.3735
LeftArm  -4.14317 -0.670548 -24.3992
LeftForeArm  23.0063 -17.1807 -4.85295
LeftHand  -0.244104 0.0205437 5.32207
RightShoulder  6.64407 9.91012 43.1747
RightArm  -3.28165 -17.8803 30.2467
RightForeArm  15.3942 6.01907 7.22398
RightHand  -0.950855 2.13706 -14.8005
LeftUpLeg  4.13609 5.62973 -2.12785
LeftLeg  11.2633 13.4242 -3.12206
LeftFoot  -13.903 0.142579 2.63984
LeftToes  -6.82154e-011 1.37952e-011 -1.79748e-011
